<?xml version="1.0" encoding="iso-8859-1"?>
<!-- Generator: Adobe Illustrator 19.0.0, SVG Export Plug-In . SVG Version: 6.00 Build 0)  -->
<svg version="1.1" id="Capa_1" xmlns="http://www.w3.org/2000/svg" xmlns:xlink="http://www.w3.org/1999/xlink" x="0px" y="0px"
	 viewBox="0 0 511.756 511.756" style="enable-background:new 0 0 511.756 511.756;" xml:space="preserve">
<g>
	<path style="fill:#4482C3;" d="M376.154,374.91h62.914c6.731-0.057,12.972,3.515,16.331,9.348l54.272,97.103
		c2.989,5.592,2.75,12.357-0.626,17.724c-3.376,5.367-9.371,8.511-15.705,8.238H18.416c-6.335,0.273-12.329-2.871-15.705-8.238
		c-3.376-5.367-3.615-12.132-0.626-17.724l54.272-97.103c3.359-5.834,9.6-9.406,16.331-9.348H376.154z"/>
	<path style="fill:#285680;" d="M493.34,507.324H123.464c0,0,176.552-17.655,220.69-132.414h94.897
		c6.738-0.072,12.986,3.508,16.331,9.357l54.29,97.103c2.985,5.591,2.743,12.353-0.632,17.717
		C505.664,504.452,499.672,507.595,493.34,507.324z"/>
	<path style="fill:#E64C3C;" d="M423.602,172.14c0,23.128-10.505,52.436-26.218,83.332c-17.034,32.257-36.296,63.287-57.644,92.866
		c-21.01,29.572-41.931,56.232-57.644,75.476c-4.767,5.914-9.092,11.034-12.712,15.448c-3.355,3.985-8.298,6.285-13.506,6.285
		c-5.209,0-10.152-2.3-13.506-6.285c-3.619-4.414-7.945-9.534-12.712-15.448c-15.713-19.244-36.723-45.903-57.644-75.476
		c-21.38-29.558-40.642-60.591-57.644-92.866c-15.713-30.897-26.218-60.204-26.218-83.332c0-92.631,75.093-167.724,167.724-167.724
		S423.602,79.509,423.602,172.14z"/>
	<path style="fill:#C03A2B;" d="M335.326,163.048c0.058,37.973-26.724,70.696-63.959,78.146
		c-37.235,7.451-74.546-12.447-89.104-47.519c-14.558-35.072-2.306-75.543,29.26-96.651s73.648-16.971,100.499,9.881
		C326.977,121.755,335.369,141.972,335.326,163.048z"/>
	<path style="fill:#FFFFFF;" d="M308.844,163.048c0.038,25.314-17.816,47.127-42.638,52.094
		c-24.822,4.966-49.694-8.298-59.399-31.678c-9.705-23.38-1.537-50.359,19.505-64.43s49.096-11.314,66.995,6.586
		C303.278,135.518,308.873,148.997,308.844,163.048z"/>
	<g>
		<path style="fill:#2C3E50;" d="M326.499,436.703H185.257c-4.875,0-8.828,3.952-8.828,8.828s3.952,8.828,8.828,8.828h141.241
			c4.875,0,8.828-3.952,8.828-8.828S331.374,436.703,326.499,436.703z"/>
		<path style="fill:#2C3E50;" d="M423.602,427.875c4.875,0,8.828-3.952,8.828-8.828s-3.952-8.828-8.828-8.828h-35.31
			c-1.743,0.003-3.447,0.519-4.899,1.483l-26.483,17.655c-4.056,2.706-5.151,8.188-2.445,12.244
			c2.706,4.056,8.188,5.151,12.244,2.445l24.232-16.172H423.602z"/>
		<path style="fill:#2C3E50;" d="M450.085,463.186h-70.621c-4.875,0-8.828,3.952-8.828,8.828s3.952,8.828,8.828,8.828h70.621
			c4.875,0,8.828-3.952,8.828-8.828S454.96,463.186,450.085,463.186z"/>
		<path style="fill:#2C3E50;" d="M128.364,411.703c-1.452-0.965-3.156-1.48-4.899-1.483h-35.31c-4.875,0-8.828,3.952-8.828,8.828
			s3.952,8.828,8.828,8.828h32.662l24.258,16.172c2.624,1.75,5.982,1.968,8.81,0.571c2.828-1.397,4.695-4.197,4.899-7.345
			c0.204-3.148-1.287-6.165-3.911-7.915L128.364,411.703z"/>
		<path style="fill:#2C3E50;" d="M132.292,463.186H61.671c-4.875,0-8.828,3.952-8.828,8.828s3.952,8.828,8.828,8.828h70.621
			c4.875,0,8.828-3.952,8.828-8.828S137.167,463.186,132.292,463.186z"/>
	</g>
</g>
<g>
</g>
<g>
</g>
<g>
</g>
<g>
</g>
<g>
</g>
<g>
</g>
<g>
</g>
<g>
</g>
<g>
</g>
<g>
</g>
<g>
</g>
<g>
</g>
<g>
</g>
<g>
</g>
<g>
</g>
</svg>
