<?xml version="1.0" encoding="utf-8"?>
<!-- Generator: Adobe Illustrator 16.0.0, SVG Export Plug-In . SVG Version: 6.00 Build 0)  -->
<!DOCTYPE svg PUBLIC "-//W3C//DTD SVG 1.1//EN" "http://www.w3.org/Graphics/SVG/1.1/DTD/svg11.dtd">
<svg version="1.1" id="Layer_1" xmlns="http://www.w3.org/2000/svg" xmlns:xlink="http://www.w3.org/1999/xlink" x="0px" y="0px"
	 width="40px" height="40px" viewBox="0 0 20 34" enable-background="new 0 0 20 34" xml:space="preserve">
<path fill="#C92A2A" d="M18.248,9.85c0,6.49-9.124,16.099-9.124,16.099S0,16.34,0,9.85S4.084,0,9.124,0
	C14.164,0,18.248,3.36,18.248,9.85"/>
<path fill="#C92A2A" d="M16.122,9.251c0,3.864-3.134,6.998-6.998,6.998c-3.866,0-6.998-3.133-6.998-6.998
	c0-3.866,3.133-6.999,6.998-6.999C12.99,2.253,16.122,5.387,16.122,9.251"/>
<path fill="#FFFFFF" d="M8.532,7.992H7.539V4.514H6.545v3.478H5.551V4.514H4.558v3.478c0,1.053,0.825,1.907,1.863,1.972v4.486h1.242
	V9.964c1.039-0.065,1.863-0.919,1.863-1.972V4.514H8.532V7.992z M11.016,6.501v3.974h1.243v3.974H13.5V4.514
	C12.129,4.514,11.016,5.627,11.016,6.501z"/>
</svg>
